<svg xmlns="http://www.w3.org/2000/svg" viewBox="0 0 72.781 72.781"><defs><style>.a,.c{fill:none;stroke:#f60;stroke-miterlimit:10;stroke-width:3px;}.b{fill:#f60;}.c{stroke-linecap:round;stroke-linejoin:round;}</style></defs><circle class="a" cx="34.891" cy="34.891" r="34.891" transform="translate(1.5 1.5)"/><g transform="translate(18.482 20.511)"><circle class="b" cx="5.646" cy="5.646" r="5.646"/><circle class="b" cx="5.646" cy="5.646" r="5.646" transform="translate(24.216 0.088)"/></g><g transform="translate(17.203 51.123)"><path class="b" d="M37.1,114H75.475c0,4.72-8.557,8.557-19.188,8.557h0C45.657,122.557,37.1,118.72,37.1,114Z" transform="translate(-37.1 -114)"/><path class="c" d="M37.1,114c0,4.72,8.557,8.557,19.188,8.557" transform="translate(-37.1 -114)"/><path class="c" d="M99.688,114c0,4.72-8.557,8.557-19.188,8.557" transform="translate(-61.357 -114)"/><path class="c" d="M37.1,114H75.475" transform="translate(-37.1 -114)"/></g></svg>